<svg viewBox="0 0 200 200" xmlns="http://www.w3.org/2000/svg">
    <defs>
        <linearGradient id="phoenixGradient" x1="0%" y1="0%" x2="100%" y2="100%">
            <stop offset="0%" style="stop-color:#FF4500"/>
            <stop offset="100%" style="stop-color:#FF4500"/>
        </linearGradient>
    </defs>
    <path fill="url(#phoenixGradient)" d="M100 15c-46.1 0-85 38.9-85 85s38.9 85 85 85 85-38.9 85-85-38.9-85-85-85zm0 150c-35.1 0-65-29.9-65-65s29.9-65 65-65 65 29.9 65 65-29.9 65-65 65z"/>
    <path fill="url(#phoenixGradient)" d="M100 35c-35.1 0-65 29.9-65 65 0 35.1 29.9 65 65 65s65-29.9 65-65c0-35.1-29.9-65-65-65zm0 110c-25.1 0-45-19.9-45-45s19.9-45 45-45 45 19.9 45 45-19.9 45-45 45z"/>
    <path fill="url(#phoenixGradient)" d="M100 55c-25.1 0-45 19.9-45 45s19.9 45 45 45 45-19.9 45-45-19.9-45-45-45zm0 70c-13 0-25-12-25-25s12-25 25-25 25 12 25 25-12 25-25 25z"/>
</svg>