<svg xmlns="http://www.w3.org/2000/svg" xmlns:xlink="http://www.w3.org/1999/xlink" width="1080" zoomAndPan="magnify" viewBox="0 0 810 809.999993" height="1080" preserveAspectRatio="xMidYMid meet" version="1.0"><defs><clipPath id="c108ce2c5b"><path d="M 134.214844 134.214844 L 675.714844 134.214844 L 675.714844 675.714844 L 134.214844 675.714844 Z M 134.214844 134.214844 " clip-rule="nonzero"/></clipPath><clipPath id="ee457891cd"><path d="M 405 134.214844 C 255.449219 134.214844 134.214844 255.449219 134.214844 405 C 134.214844 554.550781 255.449219 675.785156 405 675.785156 C 554.550781 675.785156 675.785156 554.550781 675.785156 405 C 675.785156 255.449219 554.550781 134.214844 405 134.214844 Z M 405 134.214844 " clip-rule="nonzero"/></clipPath><clipPath id="9a666facb2"><path d="M 212.429688 212.429688 L 597.566406 212.429688 L 597.566406 597.566406 L 212.429688 597.566406 Z M 212.429688 212.429688 " clip-rule="nonzero"/></clipPath><clipPath id="bbba43c511"><path d="M 405 212.429688 C 298.644531 212.429688 212.429688 298.644531 212.429688 405 C 212.429688 511.351562 298.644531 597.566406 405 597.566406 C 511.351562 597.566406 597.566406 511.351562 597.566406 405 C 597.566406 298.644531 511.351562 212.429688 405 212.429688 Z M 405 212.429688 " clip-rule="nonzero"/></clipPath><clipPath id="942395ea6c"><path d="M 290.871094 290.871094 L 518.871094 290.871094 L 518.871094 518.871094 L 290.871094 518.871094 Z M 290.871094 290.871094 " clip-rule="nonzero"/></clipPath><clipPath id="ff0afc4819"><path d="M 405 290.871094 C 341.96875 290.871094 290.871094 341.96875 290.871094 405 C 290.871094 468.03125 341.96875 519.128906 405 519.128906 C 468.03125 519.128906 519.128906 468.03125 519.128906 405 C 519.128906 341.96875 468.03125 290.871094 405 290.871094 Z M 405 290.871094 " clip-rule="nonzero"/></clipPath></defs><rect x="-81" width="972" fill="#ffffff" y="-80.999999" height="971.999992" fill-opacity="1"/><rect x="-81" width="972" fill="#ffffff" y="-80.999999" height="971.999992" fill-opacity="1"/><g clip-path="url(#c108ce2c5b)"><g clip-path="url(#ee457891cd)"><path stroke-linecap="butt" transform="matrix(0.75, 0, 0, 0.75, 134.213814, 134.213831)" fill="none" stroke-linejoin="miter" d="M 361.048266 0.00135054 C 161.647214 0.00135054 0.00137254 161.647192 0.00137254 361.048244 C 0.00137254 560.449295 161.647214 722.095137 361.048266 722.095137 C 560.449317 722.095137 722.095159 560.449295 722.095159 361.048244 C 722.095159 161.647192 560.449317 0.00135054 361.048266 0.00135054 Z M 361.048266 0.00135054 " stroke="#f54300" stroke-width="180" stroke-opacity="1" stroke-miterlimit="4"/></g></g><g clip-path="url(#9a666facb2)"><g clip-path="url(#bbba43c511)"><path stroke-linecap="butt" transform="matrix(0.75, 0, 0, 0.75, 212.430667, 212.430684)" fill="none" stroke-linejoin="miter" d="M 256.759123 -0.00132828 C 114.951824 -0.00132828 -0.00130628 114.951802 -0.00130628 256.759101 C -0.00130628 398.561192 114.951824 513.514323 256.759123 513.514323 C 398.561214 513.514323 513.514345 398.561192 513.514345 256.759101 C 513.514345 114.951802 398.561214 -0.00132828 256.759123 -0.00132828 Z M 256.759123 -0.00132828 " stroke="#f54300" stroke-width="180" stroke-opacity="1" stroke-miterlimit="4"/></g></g><g clip-path="url(#942395ea6c)"><g clip-path="url(#ff0afc4819)"><path stroke-linecap="butt" transform="matrix(0.75, 0, 0, 0.75, 290.870965, 290.870981)" fill="none" stroke-linejoin="miter" d="M 152.172055 0.000149844 C 68.130384 0.000149844 0.000171844 68.130362 0.000171844 152.172033 C 0.000171844 236.213703 68.130384 304.343915 152.172055 304.343915 C 236.213725 304.343915 304.343937 236.213703 304.343937 152.172033 C 304.343937 68.130362 236.213725 0.000149844 152.172055 0.000149844 Z M 152.172055 0.000149844 " stroke="#f54300" stroke-width="180" stroke-opacity="1" stroke-miterlimit="4"/></g></g></svg>